<svg width="17" height="16" viewBox="0 0 17 16" fill="none" xmlns="http://www.w3.org/2000/svg">
<circle cx="8.5" cy="8" r="8" fill="#FFEFEB"/>
<path fill-rule="evenodd" clip-rule="evenodd" d="M3.73751 8.88002C3.99823 9.19303 4.38431 9.37432 4.79168 9.37502H6.88168L6.62501 10.0304C6.4083 10.613 6.49135 11.2647 6.84722 11.7743C7.20308 12.2838 7.78641 12.5862 8.40793 12.5834C8.58801 12.583 8.75118 12.4772 8.82501 12.3129L10.1313 9.37502H11.2083C11.9677 9.37502 12.5833 8.75941 12.5833 8.00002V4.79169C12.5833 4.0323 11.9677 3.41669 11.2083 3.41669H5.37376C4.71 3.41691 4.14115 3.89127 4.02168 4.54419L3.43959 7.75252C3.36671 8.15394 3.47585 8.567 3.73751 8.88002ZM10.2917 4.33335H11.2083C11.4615 4.33335 11.6667 4.53856 11.6667 4.79169V8.00002C11.6667 8.25315 11.4615 8.45835 11.2083 8.45835H10.2917V4.33335ZM5.47918 4.33337L5.37376 4.33324C5.14963 4.32959 5.41408 4.11274 5.37376 4.33324H9.37501H8.40793L8.12834 11.6253L8.16677 10.623L8.1821 10.2232L8.20244 9.69277L8.40793 4.33324C8.40793 4.33324 7.67456 4.33377 7.37439 4.33324H6.62501C6.48869 4.33346 5.93751 4.33337 5.93751 4.33337H5.47918Z" fill="#FF5630"/>
</svg>

