<svg width="24" height="24" viewBox="0 0 24 24" fill="none" xmlns="http://www.w3.org/2000/svg">
<circle opacity="0.3" cx="12" cy="12" r="10" fill="#979598"/>
<path fill-rule="evenodd" clip-rule="evenodd" d="M7.79292 7.79289C7.40239 8.18342 7.40239 8.81658 7.79292 9.20711L10.6214 12.0356L7.79289 14.8641C7.40237 15.2546 7.40237 15.8878 7.79289 16.2783C8.18342 16.6688 8.81658 16.6688 9.20711 16.2783L12.0356 13.4498L14.864 16.2782C15.2545 16.6687 15.8877 16.6687 16.2782 16.2782C16.6687 15.8877 16.6687 15.2545 16.2782 14.864L13.4498 12.0356L16.2782 9.20726C16.6687 8.81673 16.6687 8.18357 16.2782 7.79304C15.8877 7.40252 15.2545 7.40252 14.864 7.79304L12.0356 10.6214L9.20713 7.79289C8.81661 7.40237 8.18344 7.40237 7.79292 7.79289Z" fill="#979598"/>
</svg>
