<svg width="196" height="213" viewBox="0 0 196 213" fill="none" xmlns="http://www.w3.org/2000/svg">
<path opacity="0.5" d="M107.245 189.026C145.54 189.026 176.585 158.064 176.585 119.87C176.585 81.6765 145.54 50.7144 107.245 50.7144C68.95 50.7144 37.9056 81.6765 37.9056 119.87C37.9056 158.064 68.95 189.026 107.245 189.026Z" fill="#EFE0FC"/>
<g filter="url(#filter0_d_7943_25128)">
<path d="M143.841 36.5181H65.1022C62.3365 36.5181 60.0944 38.7542 60.0944 41.5127V146.399C60.0944 149.157 62.3365 151.394 65.1022 151.394H151.237C154.003 151.394 156.245 149.157 156.245 146.399V50.7334C155.321 49.7923 145.613 38.2663 143.841 36.5181Z" fill="white"/>
</g>
<path fill-rule="evenodd" clip-rule="evenodd" d="M59.0164 64.4411C58.9783 64.4388 58.9401 64.4365 58.9019 64.4343C56.6833 64.3058 54.4669 64.3646 52.2528 64.6108C51.9694 64.6423 51.7158 64.57 51.4919 64.3939C51.268 64.2177 51.1385 63.9885 51.1033 63.7063C51.103 63.7041 51.1027 63.7019 51.1025 63.6997C51.1022 63.6975 51.1019 63.6953 51.1017 63.6931C51.0698 63.4078 51.1437 63.1531 51.3234 62.929C51.503 62.7048 51.7359 62.5768 52.0219 62.545C54.3931 62.2813 56.7669 62.2218 59.1432 62.3663C59.4305 62.3838 59.6694 62.5 59.8601 62.7149C60.0509 62.9298 60.1375 63.1805 60.1199 63.467C60.1024 63.7535 59.9859 63.9918 59.7704 64.182C59.5549 64.3722 59.3036 64.4586 59.0164 64.4411ZM37.9134 67.8785C37.9144 67.8805 37.9154 67.8826 37.9164 67.8846C37.9174 67.8866 37.9184 67.8886 37.9194 67.8906C37.9806 68.0116 38.0623 68.1166 38.1647 68.2057C38.267 68.2948 38.3825 68.3614 38.5109 68.4055C38.6416 68.4503 38.7759 68.4685 38.9138 68.4601C39.0517 68.4516 39.1828 68.4172 39.307 68.3567C41.339 67.3677 43.4431 66.5585 45.6192 65.9291C45.893 65.8499 46.0995 65.6862 46.2386 65.4379C46.3777 65.1896 46.4093 64.9284 46.3334 64.6543C46.3328 64.6522 46.3322 64.65 46.3316 64.6479C46.331 64.6457 46.3304 64.6436 46.3298 64.6415C46.2913 64.5091 46.2289 64.3891 46.1425 64.2815C46.0562 64.1739 45.9525 64.0869 45.8314 64.0204C45.7103 63.954 45.5811 63.9131 45.4438 63.8979C45.3064 63.8828 45.1714 63.8944 45.0387 63.9327C42.7477 64.5953 40.5325 65.4473 38.3929 66.4887C38.1343 66.6146 37.9582 66.8132 37.8646 67.0846C37.7709 67.3559 37.7872 67.6206 37.9134 67.8785ZM26.9305 76.255C26.9321 76.2566 26.9337 76.2581 26.9354 76.2597C26.937 76.2612 26.9386 76.2628 26.9403 76.2643C27.0389 76.3574 27.1516 76.4286 27.2782 76.4778C27.4047 76.5269 27.536 76.5505 27.6718 76.5485C27.81 76.5465 27.9425 76.5181 28.0694 76.4635C28.1962 76.4089 28.3078 76.3321 28.4041 76.2332C29.9793 74.6149 31.6822 73.1446 33.5127 71.8224C33.6246 71.7415 33.7167 71.6424 33.7891 71.525C33.8615 71.4076 33.9086 71.2808 33.9304 71.1447C33.9519 71.011 33.9473 70.8781 33.9166 70.7461C33.8859 70.6141 33.8315 70.4927 33.7533 70.382C33.752 70.3801 33.7507 70.3783 33.7493 70.3765C33.748 70.3746 33.7467 70.3728 33.7454 70.371C33.5766 70.1385 33.3501 69.9997 33.066 69.9543C32.7818 69.909 32.5232 69.9705 32.2901 70.1389C30.3619 71.5317 28.5681 73.0806 26.9087 74.7854C26.7082 74.9913 26.6101 75.2377 26.6144 75.5247C26.6187 75.8117 26.724 76.0551 26.9305 76.255ZM19.4122 87.8682C19.4142 87.8691 19.4163 87.8701 19.4183 87.871C19.4204 87.8719 19.4224 87.8728 19.4245 87.8737C19.6854 87.9883 19.9491 87.9951 20.2156 87.8938C20.482 87.7926 20.6744 87.6126 20.7927 87.3539C21.6031 85.5817 22.5443 83.8724 23.6164 82.2259C23.7833 81.9696 23.9531 81.7152 24.1257 81.463C24.2865 81.228 24.3413 80.9707 24.2902 80.6909C24.2391 80.4111 24.0968 80.1895 23.8633 80.0262C23.8615 80.0249 23.8597 80.0237 23.8579 80.0224C23.8561 80.0211 23.8542 80.0199 23.8524 80.0187C23.6147 79.8569 23.3545 79.8026 23.0717 79.8558C22.7889 79.909 22.5665 80.0542 22.4043 80.2912C22.2227 80.5565 22.0441 80.8241 21.8685 81.0938C20.7403 82.8265 19.7496 84.6256 18.8965 86.4913C18.8391 86.6167 18.808 86.7483 18.8032 86.886C18.7983 87.0238 18.82 87.1572 18.8684 87.2863C18.9168 87.4154 18.988 87.5304 19.0823 87.6312C19.1765 87.732 19.2865 87.811 19.4122 87.8682ZM16.2763 101.312C16.2785 101.312 16.2808 101.312 16.283 101.312C16.2853 101.313 16.2875 101.313 16.2897 101.313C16.4253 101.322 16.5576 101.306 16.6866 101.263C16.8157 101.221 16.932 101.156 17.0355 101.068C17.1408 100.979 17.225 100.873 17.2881 100.75C17.3512 100.628 17.3883 100.498 17.3995 100.36C17.5833 98.1102 17.9596 95.8948 18.5282 93.7141C18.6 93.4388 18.5645 93.1782 18.4217 92.932C18.279 92.6859 18.0701 92.5252 17.7951 92.4501C17.7929 92.4495 17.7907 92.4489 17.7886 92.4483C17.7864 92.4477 17.7842 92.4472 17.782 92.4466C17.5035 92.3744 17.2402 92.4109 16.992 92.5562C16.7439 92.7015 16.5836 92.9131 16.5112 93.1909C15.9122 95.488 15.5159 97.8216 15.3223 100.192C15.2989 100.478 15.3804 100.73 15.5666 100.949C15.7529 101.168 15.9895 101.289 16.2763 101.312ZM17.4315 107.103C17.4057 106.82 17.2838 106.587 17.066 106.403C16.8481 106.22 16.597 106.139 16.3127 106.161C16.3105 106.161 16.3083 106.161 16.306 106.162C16.3038 106.162 16.3016 106.162 16.2994 106.162C16.1617 106.175 16.0318 106.213 15.9094 106.277C15.787 106.341 15.6816 106.426 15.5932 106.532C15.5047 106.638 15.4399 106.757 15.3988 106.888C15.3577 107.02 15.3434 107.154 15.3559 107.291C15.5716 109.657 15.9879 111.988 16.6048 114.283C16.6794 114.56 16.8412 114.77 17.0904 114.914C17.3397 115.057 17.6033 115.092 17.8812 115.018C17.8834 115.017 17.8855 115.017 17.8877 115.016C17.8898 115.015 17.8919 115.015 17.8941 115.014C18.0249 114.977 18.1439 114.917 18.2511 114.834C18.3584 114.751 18.446 114.651 18.5139 114.533C18.583 114.414 18.6265 114.286 18.6446 114.149C18.6626 114.013 18.6537 113.878 18.6179 113.745C18.0318 111.564 17.6364 109.35 17.4315 107.103ZM24.1409 127.329C24.1397 127.33 24.1384 127.331 24.1372 127.332C24.1359 127.333 24.1347 127.334 24.1334 127.335C23.8963 127.497 23.6363 127.552 23.3533 127.5C23.0704 127.448 22.8474 127.304 22.6843 127.067C21.6649 125.589 20.6647 123.999 19.6838 122.299C19.6792 122.291 19.6746 122.283 19.6702 122.274C19.6658 122.266 19.6614 122.258 19.6572 122.25C19.441 121.823 19.2323 121.393 19.031 120.959C18.9101 120.699 18.8992 120.434 18.9984 120.165C19.0976 119.895 19.2778 119.7 19.5389 119.58C19.5409 119.579 19.543 119.578 19.545 119.577C19.5471 119.576 19.5491 119.575 19.5511 119.574C19.6752 119.519 19.8051 119.489 19.9409 119.484C20.0766 119.48 20.2083 119.501 20.3358 119.547C20.4655 119.595 20.5812 119.665 20.6828 119.759C20.7845 119.852 20.8643 119.961 20.9223 120.086C21.1096 120.49 21.3037 120.89 21.5044 121.287C22.4529 122.93 23.4186 124.464 24.4015 125.889C24.4798 126.003 24.5334 126.127 24.5621 126.262C24.5909 126.397 24.5927 126.532 24.5676 126.667C24.5427 126.801 24.4934 126.926 24.4195 127.04C24.3456 127.155 24.2528 127.251 24.1409 127.329L24.1409 127.329ZM27.9104 130.904C27.7746 130.898 27.6427 130.918 27.5147 130.964C27.3867 131.01 27.2721 131.078 27.1709 131.168C27.1693 131.17 27.1676 131.171 27.166 131.172C27.1644 131.174 27.1628 131.175 27.1613 131.177C26.9493 131.371 26.8372 131.611 26.825 131.898C26.8128 132.185 26.904 132.434 27.0987 132.645C28.8164 134.51 30.5848 136.093 32.4039 137.393C32.5162 137.473 32.6396 137.529 32.7742 137.56C32.9088 137.592 33.0443 137.596 33.1806 137.574C33.3169 137.551 33.4438 137.504 33.5611 137.431C33.6785 137.358 33.7774 137.266 33.8579 137.154C33.8598 137.151 33.8617 137.148 33.8636 137.145C33.8655 137.143 33.8674 137.14 33.8693 137.137C34.0302 136.904 34.0862 136.648 34.0373 136.369C33.9884 136.09 33.8485 135.868 33.6178 135.703C31.9155 134.487 30.2542 132.999 28.6336 131.239C28.5402 131.138 28.4308 131.058 28.3055 131C28.1802 130.942 28.0485 130.91 27.9104 130.904ZM38.6753 138.81C38.5552 138.869 38.4504 138.948 38.3609 139.047C38.2713 139.146 38.2034 139.258 38.1571 139.383C38.1556 139.387 38.1542 139.391 38.1528 139.395C38.1513 139.399 38.1499 139.403 38.1485 139.407C38.0556 139.679 38.0726 139.944 38.1995 140.201C38.3264 140.459 38.5261 140.634 38.7984 140.727C41.0395 141.489 43.3436 141.87 45.7106 141.87C45.9984 141.87 46.244 141.769 46.4475 141.566C46.651 141.363 46.7527 141.118 46.7527 140.831C46.7527 140.578 46.671 140.355 46.5076 140.161C46.3442 139.968 46.1375 139.85 45.8875 139.807C45.8583 139.802 45.8289 139.798 45.7994 139.795C45.7699 139.793 45.7403 139.792 45.7106 139.792C43.574 139.792 41.4942 139.447 39.4712 138.759C39.3404 138.715 39.2061 138.697 39.0682 138.706C38.9303 138.715 38.7993 138.749 38.6753 138.81Z" fill="#BA6CFE"/>
<rect width="12.5003" height="2.77615" rx="1.38808" transform="matrix(0.981866 -0.190062 -0.191558 -0.981387 165.704 41.0093)" fill="#CC93FD"/>
<rect width="12.4858" height="2.778" rx="1.389" transform="matrix(0.500581 -0.864923 0.867127 0.499417 155.752 27.4336)" fill="#CC93FD"/>
<rect width="12.495" height="2.77577" rx="1.38788" transform="matrix(0.766514 -0.641437 0.64414 0.765573 161.776 31.9546)" fill="#CC93FD"/>
<path fill-rule="evenodd" clip-rule="evenodd" d="M156.567 50.4546V143.285C156.567 150.453 153.009 152.604 146.37 152.532H72.5059C64.8323 152.532 58.6116 146.328 58.6116 138.674V42.8337C59.1698 38.2663 60.6957 36.3528 68.8078 36.3528H144.074V38.4314L72.5059 38.4314C69.2446 38.4314 64.2494 37.8105 61.9434 40.1104C60.0943 42.4156 60.6957 43.2693 60.6957 46.522L60.6957 138.674C60.6957 141.927 61.8488 144.703 64.1548 147.003C66.4609 149.303 69.2446 150.453 72.5059 150.453H142.672C145.934 150.453 150.241 150.755 152.547 148.455C154.853 146.155 154.483 141.927 154.483 138.674V50.4546H156.567Z" fill="#EFE0FC"/>
<path fill-rule="evenodd" clip-rule="evenodd" d="M156.165 49.6305C156.231 49.7055 156.282 49.7897 156.318 49.8833C156.353 49.9768 156.371 50.0736 156.371 50.1736C156.371 50.4 156.291 50.5932 156.13 50.7533C155.97 50.9134 155.776 50.9934 155.549 50.9934H146.491C145.263 50.9934 144.24 50.5362 143.423 49.6218C142.606 48.7074 142.268 47.6418 142.408 46.4251L143.457 37.3621C143.469 37.2616 143.498 37.1666 143.545 37.0769C143.592 36.9872 143.653 36.9089 143.729 36.8419C143.811 36.7699 143.903 36.7162 144.006 36.6809C144.109 36.6455 144.215 36.6312 144.324 36.6378C144.433 36.6445 144.536 36.6717 144.634 36.7193C144.732 36.767 144.817 36.8316 144.889 36.913L156.165 49.6305ZM144.879 39.3761L153.725 49.3536H146.491C145.754 49.3536 145.141 49.0793 144.65 48.5308C144.16 47.9822 143.957 47.3429 144.042 46.6129L144.879 39.3761Z" fill="#EFE0FC"/>
<path d="M103.547 53.4805H79.5094C77.9776 53.4805 76.7358 54.719 76.7358 56.2467C76.7358 57.7745 77.9776 59.0129 79.5094 59.0129H103.547C105.079 59.0129 106.321 57.7745 106.321 56.2467C106.321 54.719 105.079 53.4805 103.547 53.4805Z" fill="#E3C7FD"/>
<path d="M120.189 65.4675H79.5094C77.9776 65.4675 76.7358 66.706 76.7358 68.2338C76.7358 69.7615 77.9776 71 79.5094 71H120.189C121.72 71 122.962 69.7615 122.962 68.2338C122.962 66.706 121.72 65.4675 120.189 65.4675Z" fill="#F1EDF5"/>
<path d="M103.547 83.9092H79.5094C77.9776 83.9092 76.7358 85.1477 76.7358 86.6754C76.7358 88.2032 77.9776 89.4416 79.5094 89.4416H103.547C105.079 89.4416 106.321 88.2032 106.321 86.6754C106.321 85.1477 105.079 83.9092 103.547 83.9092Z" fill="#E3C7FD"/>
<path d="M120.189 95.8962H79.5094C77.9776 95.8962 76.7358 97.1347 76.7358 98.6625C76.7358 100.19 77.9776 101.429 79.5094 101.429H120.189C121.72 101.429 122.962 100.19 122.962 98.6625C122.962 97.1347 121.72 95.8962 120.189 95.8962Z" fill="#F1EDF5"/>
<path d="M103.547 114.338H79.5094C77.9776 114.338 76.7358 115.576 76.7358 117.104C76.7358 118.632 77.9776 119.87 79.5094 119.87H103.547C105.079 119.87 106.321 118.632 106.321 117.104C106.321 115.576 105.079 114.338 103.547 114.338Z" fill="#E3C7FD"/>
<path d="M120.189 126.325H79.5094C77.9776 126.325 76.7358 127.563 76.7358 129.091C76.7358 130.619 77.9776 131.857 79.5094 131.857H120.189C121.72 131.857 122.962 130.619 122.962 129.091C122.962 127.563 121.72 126.325 120.189 126.325Z" fill="#F1EDF5"/>
<ellipse cx="63.1401" cy="138.583" rx="21.5362" ry="21.4791" fill="#CC93FD"/>
<rect width="2.08139" height="8.32557" rx="1.0407" transform="matrix(0.708045 -0.706168 0.708045 0.706168 77.4049 154.244)" fill="#CC93FD"/>
<path fill-rule="evenodd" clip-rule="evenodd" d="M84.7745 158.653L83.2998 160.124C82.7573 160.665 82.4861 161.318 82.4861 162.083C82.4861 162.848 82.7573 163.501 83.2998 164.043L92.1431 172.862C92.6855 173.403 93.3404 173.674 94.1075 173.674C94.8747 173.674 95.5295 173.403 96.072 172.862L97.5467 171.392C98.0892 170.851 98.3604 170.197 98.3604 169.432C98.3604 168.667 98.0892 168.014 97.5467 167.473L88.7034 158.653C88.1609 158.112 87.5061 157.842 86.739 157.842C85.9718 157.842 85.317 158.112 84.7745 158.653ZM84.7728 162.573C84.4456 162.246 84.4456 161.92 84.7728 161.594L86.2475 160.123C86.5746 159.797 86.9018 159.797 87.2289 160.123L96.0722 168.943C96.3994 169.269 96.3994 169.595 96.0722 169.922L94.5975 171.393C94.2704 171.719 93.9432 171.719 93.616 171.393L84.7728 162.573Z" fill="#CC93FD"/>
<path fill-rule="evenodd" clip-rule="evenodd" d="M77.8957 123.377C86.3061 131.765 86.3061 145.365 77.8957 153.753C69.4853 162.141 55.8493 162.141 47.4389 153.753C39.0284 145.365 39.0284 131.765 47.4389 123.377C55.8493 114.989 69.4853 114.989 77.8957 123.377ZM82.1186 138.565C82.1186 143.922 80.2195 148.495 76.4212 152.283C72.623 156.071 68.0381 157.965 62.6665 157.965C57.295 157.965 52.7101 156.071 48.9118 152.283C45.1136 148.495 43.2144 143.922 43.2144 138.565C43.2144 133.207 45.1136 128.635 48.9118 124.846C52.7101 121.058 57.295 119.164 62.6665 119.164C68.038 119.164 72.6229 121.058 76.4212 124.846C80.2195 128.635 82.1186 133.207 82.1186 138.565Z" fill="#CC93FD"/>
<rect width="2.44" height="22.2015" rx="1.22" transform="matrix(0.708044 0.706168 -0.708044 0.706168 70.1151 130.658)" fill="white"/>
<rect width="2.44182" height="22.2015" rx="1.22091" transform="matrix(-0.708044 0.706168 0.708044 0.706168 56.1329 130.666)" fill="white"/>
<defs>
<filter id="filter0_d_7943_25128" x="54.0944" y="27.5181" width="108.151" height="126.875" filterUnits="userSpaceOnUse" color-interpolation-filters="sRGB">
<feFlood flood-opacity="0" result="BackgroundImageFix"/>
<feColorMatrix in="SourceAlpha" type="matrix" values="0 0 0 0 0 0 0 0 0 0 0 0 0 0 0 0 0 0 127 0" result="hardAlpha"/>
<feOffset dy="-3"/>
<feGaussianBlur stdDeviation="3"/>
<feColorMatrix type="matrix" values="0 0 0 0 0.788235 0 0 0 0 0.803922 0 0 0 0 0.85098 0 0 0 0.349 0"/>
<feBlend mode="normal" in2="BackgroundImageFix" result="effect1_dropShadow_7943_25128"/>
<feBlend mode="normal" in="SourceGraphic" in2="effect1_dropShadow_7943_25128" result="shape"/>
</filter>
</defs>
</svg>
