<svg width="24" height="24" viewBox="0 0 24 24" fill="none" xmlns="http://www.w3.org/2000/svg">
<path d="M21.5475 5.07253C21.0202 4.54584 20.3053 4.25 19.56 4.25C18.8147 4.25 18.0999 4.54584 17.5725 5.07253C17.36 5.28346 17.1827 5.52719 17.0475 5.7944L14.1131 4.98815C14.1404 4.5898 14.0817 4.19025 13.941 3.81659C13.8002 3.44293 13.5808 3.10391 13.2975 2.82253C12.7702 2.29584 12.0553 2 11.31 2C10.5647 2 9.84987 2.29584 9.32253 2.82253C8.88167 3.2623 8.59923 3.83596 8.51948 4.45353C8.43974 5.07111 8.56721 5.69769 8.8819 6.23503L5.47878 9.30065C4.93753 8.90125 4.27106 8.70907 3.60026 8.75895C2.92946 8.80883 2.29875 9.09747 1.82252 9.57253C1.29584 10.0999 1 10.8147 1 11.56C1 12.3053 1.29584 13.0202 1.82252 13.5475C2.08219 13.8104 2.39175 14.0189 2.73305 14.1605C3.07434 14.3022 3.4405 14.3743 3.81002 14.3725C4.5103 14.373 5.18557 14.1123 5.70377 13.6413L12.5006 18.6381C12.2649 19.1607 12.1933 19.7426 12.2954 20.3067C12.3976 20.8709 12.6685 21.3907 13.0725 21.7975C13.333 22.0594 13.6427 22.2673 13.9838 22.4091C14.3249 22.5509 14.6906 22.6239 15.06 22.6239C15.4294 22.6239 15.7952 22.5509 16.1363 22.4091C16.4773 22.2673 16.787 22.0594 17.0475 21.7975C17.5742 21.2702 17.87 20.5553 17.87 19.81C17.87 19.0647 17.5742 18.3499 17.0475 17.8225C16.886 17.6581 16.7031 17.5162 16.5038 17.4007L19.1756 9.8444C19.3029 9.86342 19.4314 9.87282 19.56 9.87253C19.9296 9.87427 20.2957 9.80219 20.637 9.66052C20.9783 9.51885 21.2879 9.31044 21.5475 9.04752C22.0742 8.52018 22.37 7.80534 22.37 7.06003C22.37 6.31471 22.0742 5.59987 21.5475 5.07253ZM10.1194 3.6194C10.3551 3.38266 10.6558 3.22121 10.9833 3.15549C11.3109 3.08978 11.6505 3.12277 11.9593 3.25027C12.2681 3.37778 12.5321 3.59406 12.7178 3.87173C12.9036 4.1494 13.0028 4.47595 13.0028 4.81003C13.0028 5.1441 12.9036 5.47065 12.7178 5.74832C12.5321 6.02599 12.2681 6.24227 11.9593 6.36978C11.6505 6.49728 11.3109 6.53027 10.9833 6.46456C10.6558 6.39884 10.3551 6.23739 10.1194 6.00065C9.80453 5.6844 9.62775 5.2563 9.62775 4.81003C9.62775 4.36375 9.80453 3.93565 10.1194 3.6194ZM2.6194 12.7507C2.30453 12.4344 2.12775 12.0063 2.12775 11.56C2.12775 11.1138 2.30453 10.6857 2.6194 10.3694C2.85511 10.1327 3.15578 9.97121 3.48332 9.90549C3.81086 9.83978 4.15054 9.87277 4.45932 10.0003C4.76811 10.1278 5.03209 10.3441 5.21785 10.6217C5.4036 10.8994 5.50275 11.226 5.50275 11.56C5.50275 11.8941 5.4036 12.2207 5.21785 12.4983C5.03209 12.776 4.76811 12.9923 4.45932 13.1198C4.15054 13.2473 3.81086 13.2803 3.48332 13.2146C3.15578 13.1488 2.85511 12.9874 2.6194 12.7507ZM16.2506 21.0007C15.9285 21.2827 15.5111 21.4318 15.0831 21.4176C14.6552 21.4034 14.2486 21.2271 13.9458 20.9243C13.643 20.6215 13.4666 20.2149 13.4524 19.7869C13.4383 19.3589 13.5873 18.9416 13.8694 18.6194C14.1916 18.3373 14.6089 18.1883 15.0369 18.2024C15.4649 18.2166 15.8715 18.393 16.1743 18.6958C16.4771 18.9986 16.6534 19.4052 16.6676 19.8331C16.6818 20.2611 16.5327 20.6785 16.2506 21.0007ZM15.4444 17.0257C15.0363 16.9682 14.6206 17.0014 14.2269 17.1229C13.8331 17.2445 13.471 17.4513 13.1663 17.7288L6.3694 12.7319C6.55433 12.3195 6.63885 11.8691 6.61603 11.4177C6.59322 10.9663 6.46372 10.5267 6.23815 10.135L9.64127 7.0694C9.97043 7.31254 10.3487 7.48092 10.7496 7.56279C11.1506 7.64467 11.5645 7.63806 11.9627 7.54344C12.3608 7.44882 12.7335 7.26846 13.0547 7.01495C13.3759 6.76144 13.638 6.44088 13.8225 6.07565L16.7569 6.8819C16.7296 7.28025 16.7883 7.6798 16.9291 8.05346C17.0698 8.42712 17.2892 8.76614 17.5725 9.04752C17.734 9.2119 17.9169 9.3538 18.1163 9.4694L15.4444 17.0257ZM20.7506 8.25065C20.4285 8.53273 20.0111 8.68179 19.5831 8.6676C19.1552 8.65342 18.7486 8.47707 18.4458 8.17427C18.143 7.87148 17.9666 7.4649 17.9524 7.03692C17.9383 6.60894 18.0873 6.19157 18.3694 5.8694C18.6916 5.58732 19.1089 5.43826 19.5369 5.45245C19.9649 5.46663 20.3715 5.64298 20.6743 5.94578C20.9771 6.24857 21.1534 6.65515 21.1676 7.08313C21.1818 7.51111 21.0327 7.92848 20.7506 8.25065Z" fill="black"/>
<path d="M10.5 9L10 12L13 15L15.5 9.5L10.5 9Z" stroke="black"/>
</svg>
