<svg width="24" height="24" viewBox="0 0 24 24" fill="none" xmlns="http://www.w3.org/2000/svg">
<path d="M24 11.1429H22.2429C22.0377 8.72235 20.983 6.45244 19.2653 4.73474C17.5476 3.01705 15.2776 1.96231 12.8571 1.75714V0H11.1429V1.75714C8.72235 1.96231 6.45244 3.01705 4.73474 4.73474C3.01705 6.45244 1.96231 8.72235 1.75714 11.1429H0V12.8571H1.75714C1.96231 15.2776 3.01705 17.5476 4.73474 19.2653C6.45244 20.983 8.72235 22.0377 11.1429 22.2429V24H12.8571V22.2429C15.2776 22.0377 17.5476 20.983 19.2653 19.2653C20.983 17.5476 22.0377 15.2776 22.2429 12.8571H24V11.1429ZM12.8571 20.5286V17.1429H11.1429V20.5286C9.17655 20.3282 7.33957 19.4556 5.94198 18.058C4.54439 16.6604 3.67178 14.8235 3.47143 12.8571H6.85714V11.1429H3.47143C3.67178 9.17655 4.54439 7.33957 5.94198 5.94198C7.33957 4.54439 9.17655 3.67178 11.1429 3.47143V6.85714H12.8571V3.47143C14.8235 3.67178 16.6604 4.54439 18.058 5.94198C19.4556 7.33957 20.3282 9.17655 20.5286 11.1429H17.1429V12.8571H20.5286C20.3282 14.8235 19.4556 16.6604 18.058 18.058C16.6604 19.4556 14.8235 20.3282 12.8571 20.5286Z" fill="#BCB7C0"/>
</svg>
