<svg width="24" height="24" viewBox="0 0 24 24" fill="currentColor" xmlns="http://www.w3.org/2000/svg">
<path fill-rule="evenodd" clip-rule="evenodd" d="M22.1669 18.1421C22.4824 18.4577 23.022 18.2331 23.0204 17.7868L23.0037 13.1053V5.52632C23.0037 4.13107 21.8727 3 20.4774 3H8.68794C7.29269 3 6.16162 4.13107 6.16162 5.52632V9H12.9998C14.6566 9 15.9998 10.3431 15.9998 12V15.6316H19.6563L22.1669 18.1421Z" fill="currentColor"/>
<path opacity="0.3" fill-rule="evenodd" clip-rule="evenodd" d="M1.98486 18V13C1.98486 11.8954 2.88029 11 3.98486 11H11.9849C13.0894 11 13.9849 11.8954 13.9849 13V18C13.9849 19.1046 13.0894 20 11.9849 20H4.10059L2.85674 21.1905C2.53874 21.4949 2.01102 21.2695 2.01102 20.8293V18.3243C1.99381 18.2187 1.98486 18.1104 1.98486 18ZM5.99981 14.5C5.99981 14.2239 6.22367 14 6.49981 14H11.4998C11.7759 14 11.9998 14.2239 11.9998 14.5C11.9998 14.7761 11.7759 15 11.4998 15H6.49981C6.22366 15 5.99981 14.7761 5.99981 14.5ZM9.49981 16C9.22367 16 8.99981 16.2239 8.99981 16.5C8.99981 16.7761 9.22367 17 9.49981 17H11.4998C11.7759 17 11.9998 16.7761 11.9998 16.5C11.9998 16.2239 11.7759 16 11.4998 16H9.49981Z" fill="currentColor"/>
</svg>
