<svg width="220" height="182" viewBox="0 0 220 182" fill="none" xmlns="http://www.w3.org/2000/svg">
<g opacity="0.6">
<path d="M131.295 167C172.717 167 206.295 133.421 206.295 92C206.295 50.5786 172.717 17 131.295 17C89.8739 17 56.2953 50.5786 56.2953 92C56.2953 133.421 89.8739 167 131.295 167Z" fill="#E3C7FD"/>
<g filter="url(#filter0_d_8415_27740)">
<path d="M174.295 60H88.2952C85.5337 60 83.2952 62.2386 83.2952 65V170C83.2952 172.761 85.5337 175 88.2952 175H174.295C177.057 175 179.295 172.761 179.295 170V65C179.295 62.2386 177.057 60 174.295 60Z" fill="white"/>
</g>
<path d="M121.295 75H95.2952C93.6383 75 92.2952 76.3431 92.2952 78C92.2952 79.6569 93.6383 81 95.2952 81H121.295C122.952 81 124.295 79.6569 124.295 78C124.295 76.3431 122.952 75 121.295 75Z" fill="#CC93FD"/>
<path d="M139.295 88H95.2952C93.6383 88 92.2952 89.3431 92.2952 91C92.2952 92.6569 93.6383 94 95.2952 94H139.295C140.952 94 142.295 92.6569 142.295 91C142.295 89.3431 140.952 88 139.295 88Z" fill="#F1EDF5"/>
<path d="M121.295 102H95.2952C93.6383 102 92.2952 103.343 92.2952 105C92.2952 106.657 93.6383 108 95.2952 108H121.295C122.952 108 124.295 106.657 124.295 105C124.295 103.343 122.952 102 121.295 102Z" fill="#CC93FD"/>
<path d="M139.295 115H95.2952C93.6383 115 92.2952 116.343 92.2952 118C92.2952 119.657 93.6383 121 95.2952 121H139.295C140.952 121 142.295 119.657 142.295 118C142.295 116.343 140.952 115 139.295 115Z" fill="#F1EDF5"/>
<path d="M121.295 129H95.2952C93.6383 129 92.2952 130.343 92.2952 132C92.2952 133.657 93.6383 135 95.2952 135H121.295C122.952 135 124.295 133.657 124.295 132C124.295 130.343 122.952 129 121.295 129Z" fill="#CC93FD"/>
<path d="M139.295 142H95.2952C93.6383 142 92.2952 143.343 92.2952 145C92.2952 146.657 93.6383 148 95.2952 148H139.295C140.952 148 142.295 146.657 142.295 145C142.295 143.343 140.952 142 139.295 142Z" fill="#F1EDF5"/>
<g filter="url(#filter1_d_8415_27740)">
<path d="M174.295 9H88.2952C85.5337 9 83.2952 11.2386 83.2952 14V44C83.2952 46.7614 85.5337 49 88.2952 49H174.295C177.057 49 179.295 46.7614 179.295 44V14C179.295 11.2386 177.057 9 174.295 9Z" fill="#8900FF"/>
</g>
<path d="M121.295 20H95.2952C93.6383 20 92.2952 21.3431 92.2952 23C92.2952 24.6569 93.6383 26 95.2952 26H121.295C122.952 26 124.295 24.6569 124.295 23C124.295 21.3431 122.952 20 121.295 20Z" fill="#BA6CFE"/>
<path d="M139.295 33H95.2952C93.6383 33 92.2952 34.3431 92.2952 36C92.2952 37.6569 93.6383 39 95.2952 39H139.295C140.952 39 142.295 37.6569 142.295 36C142.295 34.3431 140.952 33 139.295 33Z" fill="#F8F5FA"/>
</g>
<path fill-rule="evenodd" clip-rule="evenodd" d="M68.5605 56.7914C68.5193 56.7889 68.478 56.7864 68.4366 56.784C66.0369 56.6446 63.6396 56.7084 61.2448 56.9754C60.9383 57.0096 60.6639 56.9312 60.4218 56.7402C60.1796 56.5491 60.0395 56.3006 60.0014 55.9945C60.0011 55.9921 60.0008 55.9897 60.0005 55.9873C60.0002 55.9849 60 55.9825 59.9997 55.9801C59.9652 55.6708 60.0451 55.3946 60.2395 55.1515C60.4338 54.9083 60.6857 54.7695 60.995 54.735C63.5598 54.4491 66.1273 54.3845 68.6977 54.5413C69.0084 54.5602 69.2668 54.6862 69.4731 54.9193C69.6794 55.1524 69.7731 55.4243 69.7541 55.7349C69.7352 56.0456 69.6092 56.3041 69.3761 56.5104C69.143 56.7167 68.8711 56.8103 68.5605 56.7914ZM45.7349 60.5193C45.7359 60.5215 45.737 60.5237 45.7381 60.5258C45.7392 60.528 45.7402 60.5302 45.7413 60.5323C45.8075 60.6636 45.8959 60.7775 46.0066 60.8741C46.1173 60.9707 46.2422 61.043 46.3811 61.0908C46.5224 61.1394 46.6677 61.1591 46.8169 61.15C46.9661 61.1408 47.1078 61.1035 47.2422 61.0379C49.4401 59.9653 51.7159 59.0877 54.0696 58.4051C54.3659 58.3192 54.5892 58.1417 54.7396 57.8724C54.8901 57.6032 54.9243 57.3199 54.8422 57.0226C54.8416 57.0203 54.8409 57.018 54.8402 57.0156C54.8396 57.0133 54.8389 57.011 54.8383 57.0087C54.7966 56.8651 54.7291 56.735 54.6357 56.6183C54.5423 56.5016 54.4301 56.4072 54.2992 56.3351C54.1683 56.2631 54.0285 56.2188 53.8799 56.2023C53.7314 56.1858 53.5853 56.1984 53.4418 56.2401C50.9638 56.9586 48.5677 57.8826 46.2535 59.012C45.9738 59.1485 45.7833 59.3639 45.682 59.6582C45.5807 59.9525 45.5984 60.2396 45.7349 60.5193ZM33.8554 69.6036C33.8571 69.6053 33.8589 69.607 33.8606 69.6087C33.8624 69.6104 33.8641 69.6121 33.8659 69.6138C33.9727 69.7147 34.0945 69.7919 34.2314 69.8452C34.3683 69.8985 34.5102 69.9241 34.6572 69.9219C34.8066 69.9197 34.95 69.889 35.0872 69.8298C35.2244 69.7705 35.3451 69.6873 35.4492 69.58C37.1531 67.8249 38.995 66.2303 40.9748 64.7964C41.0959 64.7087 41.1956 64.6012 41.2738 64.4739C41.3521 64.3466 41.4031 64.2091 41.4267 64.0615C41.4499 63.9164 41.4449 63.7723 41.4118 63.6292C41.3786 63.486 41.3197 63.3544 41.2351 63.2343C41.2337 63.2323 41.2323 63.2303 41.2308 63.2283C41.2294 63.2263 41.228 63.2244 41.2266 63.2224C41.044 62.9703 40.799 62.8197 40.4917 62.7705C40.1843 62.7214 39.9046 62.7881 39.6525 62.9707C37.5669 64.4812 35.6266 66.1609 33.8317 68.0098C33.6149 68.2331 33.5088 68.5004 33.5134 68.8116C33.5181 69.1228 33.632 69.3868 33.8554 69.6036ZM25.7233 82.1982C25.7255 82.1992 25.7277 82.2002 25.7299 82.2012C25.7322 82.2022 25.7344 82.2032 25.7366 82.2042C26.0188 82.3285 26.3041 82.3358 26.5923 82.226C26.8805 82.1162 27.0886 81.921 27.2165 81.6404C28.0931 79.7185 29.1111 77.8647 30.2707 76.0791C30.4513 75.8011 30.6349 75.5253 30.8216 75.2517C30.9955 74.9969 31.0548 74.7178 30.9995 74.4144C30.9442 74.1109 30.7903 73.8706 30.5378 73.6935C30.5358 73.6921 30.5339 73.6908 30.5319 73.6894C30.5299 73.688 30.528 73.6867 30.526 73.6853C30.2689 73.5099 29.9874 73.451 29.6816 73.5087C29.3757 73.5665 29.1351 73.7239 28.9596 73.981C28.7633 74.2687 28.5701 74.5588 28.3801 74.8514C27.1598 76.7304 26.0883 78.6816 25.1655 80.705C25.1035 80.841 25.0698 80.9837 25.0646 81.133C25.0593 81.2824 25.0828 81.4271 25.1351 81.5671C25.1874 81.7072 25.2645 81.8318 25.3665 81.9412C25.4684 82.0505 25.5873 82.1362 25.7233 82.1982ZM22.3314 96.778C22.3338 96.7782 22.3363 96.7784 22.3387 96.7786C22.3411 96.7788 22.3435 96.7789 22.346 96.779C22.4926 96.7891 22.6357 96.7712 22.7752 96.7253C22.9148 96.6794 23.0406 96.6088 23.1526 96.5137C23.2665 96.4169 23.3576 96.3021 23.4258 96.1691C23.494 96.0361 23.5342 95.8951 23.5464 95.7461C23.7452 93.3058 24.1521 90.9031 24.7672 88.5381C24.8448 88.2396 24.8064 87.9569 24.652 87.69C24.4976 87.423 24.2716 87.2488 23.9742 87.1673C23.9719 87.1667 23.9695 87.166 23.9671 87.1654C23.9648 87.1648 23.9624 87.1642 23.96 87.1635C23.6588 87.0852 23.374 87.1248 23.1056 87.2824C22.8372 87.44 22.6638 87.6694 22.5855 87.9707C21.9376 90.4619 21.5089 92.9927 21.2995 95.5631C21.2742 95.8733 21.3623 96.147 21.5638 96.3843C21.7653 96.6215 22.0212 96.7528 22.3314 96.778ZM23.5809 103.059C23.553 102.752 23.4212 102.498 23.1856 102.3C22.9499 102.101 22.6783 102.013 22.3708 102.037C22.3684 102.037 22.366 102.037 22.3636 102.038C22.3612 102.038 22.3588 102.038 22.3564 102.038C22.2075 102.052 22.0669 102.093 21.9346 102.163C21.8022 102.232 21.6882 102.324 21.5925 102.439C21.4968 102.554 21.4268 102.683 21.3823 102.825C21.3378 102.968 21.3224 103.114 21.3359 103.263C21.5692 105.828 22.0195 108.356 22.6868 110.845C22.7674 111.146 22.9425 111.374 23.212 111.529C23.4816 111.685 23.7667 111.723 24.0673 111.642C24.0697 111.641 24.072 111.641 24.0743 111.64C24.0766 111.639 24.079 111.639 24.0813 111.638C24.2227 111.598 24.3515 111.533 24.4675 111.443C24.5835 111.353 24.6782 111.244 24.7517 111.117C24.8264 110.987 24.8735 110.848 24.893 110.7C24.9125 110.552 24.9029 110.406 24.8642 110.261C24.2303 107.897 23.8025 105.496 23.5809 103.059ZM30.8381 124.994C30.8367 124.995 30.8354 124.996 30.834 124.997C30.8327 124.998 30.8313 124.999 30.8299 125C30.5735 125.176 30.2922 125.236 29.9862 125.179C29.6801 125.123 29.4389 124.966 29.2625 124.71C28.1599 123.107 27.0781 121.383 26.0171 119.538C26.0121 119.53 26.0072 119.521 26.0024 119.512C25.9976 119.503 25.9929 119.494 25.9883 119.485C25.7545 119.023 25.5287 118.556 25.311 118.086C25.1802 117.804 25.1685 117.516 25.2758 117.224C25.3831 116.932 25.5779 116.72 25.8604 116.59C25.8626 116.589 25.8648 116.588 25.867 116.587C25.8692 116.586 25.8714 116.585 25.8736 116.584C26.0078 116.524 26.1483 116.491 26.2951 116.486C26.442 116.481 26.5844 116.504 26.7223 116.554C26.8627 116.606 26.9878 116.682 27.0977 116.784C27.2076 116.885 27.2939 117.003 27.3567 117.139C27.5593 117.577 27.7692 118.011 27.9864 118.441C29.0123 120.223 30.0568 121.887 31.1199 123.432C31.2046 123.556 31.2625 123.69 31.2937 123.836C31.3248 123.983 31.3267 124.129 31.2996 124.276C31.2727 124.421 31.2193 124.556 31.1394 124.681C31.0595 124.805 30.959 124.909 30.838 124.994L30.8381 124.994ZM34.9153 128.871C34.7683 128.864 34.6257 128.886 34.4872 128.936C34.3488 128.985 34.2249 129.059 34.1154 129.157C34.1136 129.159 34.1119 129.16 34.1101 129.162C34.1084 129.164 34.1067 129.165 34.105 129.167C33.8757 129.377 33.7545 129.638 33.7413 129.949C33.7281 130.26 33.8267 130.53 34.0373 130.759C35.8952 132.782 37.8079 134.498 39.7755 135.908C39.897 135.995 40.0306 136.056 40.1761 136.09C40.3217 136.124 40.4682 136.128 40.6157 136.104C40.7631 136.08 40.9003 136.028 41.0273 135.949C41.1542 135.87 41.2612 135.77 41.3482 135.649C41.3503 135.646 41.3524 135.643 41.3544 135.64C41.3565 135.637 41.3585 135.634 41.3606 135.631C41.5346 135.378 41.5952 135.1 41.5423 134.798C41.4894 134.495 41.3381 134.255 41.0885 134.076C39.2473 132.757 37.4503 131.143 35.6975 129.234C35.5964 129.124 35.4781 129.038 35.3426 128.975C35.207 128.912 35.0646 128.877 34.9153 128.871ZM46.5589 137.445C46.4291 137.509 46.3157 137.595 46.2188 137.702C46.122 137.809 46.0485 137.931 45.9985 138.067C45.9968 138.071 45.9953 138.075 45.9937 138.08C45.9922 138.084 45.9906 138.089 45.9891 138.093C45.8887 138.388 45.9071 138.674 46.0443 138.954C46.1816 139.233 46.3975 139.423 46.6921 139.524C49.1161 140.35 51.6083 140.764 54.1686 140.764C54.4798 140.764 54.7455 140.654 54.9656 140.434C55.1857 140.214 55.2957 139.948 55.2957 139.637C55.2957 139.362 55.2073 139.12 55.0306 138.91C54.8538 138.701 54.6302 138.572 54.3599 138.526C54.3283 138.52 54.2965 138.516 54.2646 138.514C54.2326 138.511 54.2006 138.51 54.1686 138.51C51.8575 138.509 49.6079 138.136 47.4198 137.39C47.2783 137.342 47.133 137.322 46.9839 137.332C46.8347 137.342 46.6931 137.379 46.5589 137.445Z" fill="#A945FE"/>
<rect width="12.6591" height="4.77372" rx="2" transform="matrix(1.00157 -0.107851 -0.245472 -0.872699 203.799 45.21)" fill="#BA6CFE"/>
<rect width="16.1196" height="3.56636" rx="1.78318" transform="matrix(0.348473 -0.7029 1.05111 0.528829 192.438 30.1064)" fill="#BA6CFE"/>
<rect width="15.406" height="3.51635" rx="1.75818" transform="matrix(0.623309 -0.532665 0.765183 0.793563 198.953 34.9043)" fill="#BA6CFE"/>
<ellipse cx="73.0174" cy="137.202" rx="23.2943" ry="23.2943" fill="#A945FE"/>
<rect x="88.4468" y="154.186" width="2.25429" height="9.01714" rx="1.467" transform="rotate(-45 88.4468 154.186)" fill="#A945FE"/>
<path fill-rule="evenodd" clip-rule="evenodd" d="M96.4178 158.969L94.8227 160.564C94.2359 161.15 93.9426 161.859 93.9426 162.689C93.9426 163.518 94.2359 164.227 94.8227 164.813L104.388 174.379C104.975 174.965 105.683 175.259 106.513 175.259C107.342 175.259 108.051 174.965 108.638 174.379L110.233 172.783C110.819 172.197 111.113 171.488 111.113 170.659C111.113 169.829 110.819 169.121 110.233 168.534L100.667 158.969C100.081 158.382 99.3724 158.088 98.5426 158.088C97.7128 158.088 97.0045 158.382 96.4178 158.969ZM96.4159 163.219C96.062 162.865 96.062 162.512 96.4159 162.158L98.011 160.563C98.3648 160.209 98.7187 160.209 99.0726 160.563L108.638 170.128C108.992 170.482 108.992 170.836 108.638 171.189L107.043 172.784C106.689 173.138 106.335 173.138 105.981 172.784L96.4159 163.219Z" fill="#A945FE"/>
<path fill-rule="evenodd" clip-rule="evenodd" d="M88.9777 120.71C98.0746 129.807 98.0746 144.556 88.9777 153.653C79.8807 162.75 65.1315 162.75 56.0346 153.653C46.9376 144.556 46.9376 129.807 56.0346 120.71C65.1315 111.613 79.8807 111.613 88.9777 120.71ZM93.5453 137.182C93.5453 142.992 91.4911 147.951 87.3828 152.059C83.2745 156.167 78.3153 158.222 72.5053 158.222C66.6952 158.222 61.7361 156.167 57.6278 152.059C53.5194 147.951 51.4653 142.992 51.4653 137.182C51.4653 131.372 53.5194 126.412 57.6278 122.304C61.7361 118.196 66.6952 116.142 72.5053 116.142C78.3153 116.142 83.2745 118.196 87.3828 122.304C91.4911 126.412 93.5453 131.372 93.5453 137.182Z" fill="#A945FE"/>
<rect x="80.3834" y="128.429" width="3.17713" height="24.0457" rx="1.5" transform="rotate(45 80.3834 128.429)" fill="white"/>
<rect width="3.94746" height="31.296" rx="1.5" transform="matrix(-0.543292 0.543292 0.543292 0.543292 65.5754 128.479)" fill="white"/>
<defs>
<filter id="filter0_d_8415_27740" x="77.2952" y="51" width="108" height="127" filterUnits="userSpaceOnUse" color-interpolation-filters="sRGB">
<feFlood flood-opacity="0" result="BackgroundImageFix"/>
<feColorMatrix in="SourceAlpha" type="matrix" values="0 0 0 0 0 0 0 0 0 0 0 0 0 0 0 0 0 0 127 0" result="hardAlpha"/>
<feOffset dy="-3"/>
<feGaussianBlur stdDeviation="3"/>
<feColorMatrix type="matrix" values="0 0 0 0 0.788235 0 0 0 0 0.803922 0 0 0 0 0.85098 0 0 0 0.349 0"/>
<feBlend mode="normal" in2="BackgroundImageFix" result="effect1_dropShadow_8415_27740"/>
<feBlend mode="normal" in="SourceGraphic" in2="effect1_dropShadow_8415_27740" result="shape"/>
</filter>
<filter id="filter1_d_8415_27740" x="77.2952" y="0" width="108" height="52" filterUnits="userSpaceOnUse" color-interpolation-filters="sRGB">
<feFlood flood-opacity="0" result="BackgroundImageFix"/>
<feColorMatrix in="SourceAlpha" type="matrix" values="0 0 0 0 0 0 0 0 0 0 0 0 0 0 0 0 0 0 127 0" result="hardAlpha"/>
<feOffset dy="-3"/>
<feGaussianBlur stdDeviation="3"/>
<feColorMatrix type="matrix" values="0 0 0 0 0.788235 0 0 0 0 0.803922 0 0 0 0 0.85098 0 0 0 0.349 0"/>
<feBlend mode="normal" in2="BackgroundImageFix" result="effect1_dropShadow_8415_27740"/>
<feBlend mode="normal" in="SourceGraphic" in2="effect1_dropShadow_8415_27740" result="shape"/>
</filter>
</defs>
</svg>
