<svg width="24" height="24" viewBox="0 0 24 24" fill="currentColor" xmlns="http://www.w3.org/2000/svg">
<path fill-rule="evenodd" clip-rule="evenodd" d="M19.5562 17.5244L20.257 19.3385C20.3284 19.5217 20.3627 19.7172 20.3582 19.9138C20.3537 20.1104 20.3103 20.3041 20.2305 20.4838C20.1508 20.6635 20.0363 20.8257 19.8936 20.961C19.7509 21.0963 19.5829 21.202 19.3992 21.2721C19.2281 21.3377 19.0453 21.3729 18.8601 21.3729H4.49531C3.67031 21.3729 3 20.7025 3 19.8775C3 19.6947 3.03516 19.5119 3.10078 19.3385L4.21875 16.4229L4.89609 16.8471C5.89687 17.5385 7.08047 17.9158 8.32265 17.9158C9.73598 17.9171 11.1045 17.42 12.1875 16.5119C12.9797 15.8533 13.9711 15.4854 15.0234 15.4854C15.8367 15.4854 16.6172 15.7033 17.2969 16.1135L17.3039 16.1205L17.4937 16.2377C17.5019 16.2436 17.5107 16.2494 17.5195 16.2553C17.5283 16.2611 17.5371 16.267 17.5453 16.2729L17.5476 16.2705L19.5562 17.5244Z" fill="currentColor"/>
<path opacity="0.3" fill-rule="evenodd" clip-rule="evenodd" d="M5 14.9133L5.99844 15.5367C6.00078 15.5391 6.00547 15.5414 6.00781 15.5438L6.30547 15.7313L6.3125 15.7383C6.98275 16.1258 7.74374 16.3288 8.51797 16.3266C9.57031 16.3266 10.5617 15.9586 11.3539 15.3C12.4369 14.3919 13.8054 13.8948 15.2187 13.8961C16.4445 13.8961 17.6141 14.2641 18.6078 14.9391L18.793 15.0563L16.1773 8.28281V4.21406H17.6656C17.7687 4.21406 17.8531 4.12969 17.8531 4.02656V2.8125C17.8531 2.70938 17.7687 2.625 17.6656 2.625H6.07344C5.97031 2.625 5.88594 2.70938 5.88594 2.8125V4.02891C5.88594 4.13203 5.97031 4.21641 6.07344 4.21641H7.56172V8.28516L5 14.9133ZM13.7398 11.0883C13.7398 10.5727 13.3203 10.1531 12.8047 10.1531C12.2891 10.1531 11.8695 10.5727 11.8695 11.0883C11.8695 11.6039 12.2891 12.0234 12.8047 12.0234C13.3203 12.0234 13.7398 11.6039 13.7398 11.0883Z" fill="currentColor"/>
</svg>
