<svg width="99" height="98" viewBox="0 0 99 98" fill="none" xmlns="http://www.w3.org/2000/svg">
<ellipse cx="43.0725" cy="42.9581" rx="21.5362" ry="21.4791" fill="#CC93FD"/>
<rect width="2.08139" height="8.32557" rx="1.0407" transform="matrix(0.708045 -0.706168 0.708045 0.706168 57.3373 58.6187)" fill="#CC93FD"/>
<path fill-rule="evenodd" clip-rule="evenodd" d="M64.7069 63.0282L63.2322 64.499C62.6897 65.04 62.4185 65.6931 62.4185 66.4583C62.4185 67.2234 62.6897 67.8765 63.2322 68.4175L72.0755 77.2374C72.6179 77.7784 73.2727 78.0489 74.0399 78.0489C74.8071 78.0489 75.4619 77.7784 76.0044 77.2374L77.4791 75.7666C78.0216 75.2255 78.2928 74.5724 78.2928 73.8073C78.2928 73.0422 78.0216 72.3891 77.4791 71.848L68.6358 63.0282C68.0933 62.4872 67.4385 62.2166 66.6713 62.2166C65.9042 62.2167 65.2493 62.4872 64.7069 63.0282ZM64.7051 66.9477C64.378 66.6214 64.378 66.2951 64.7051 65.9688L66.1798 64.498C66.507 64.1717 66.8342 64.1717 67.1613 64.498L76.0046 73.3179C76.3318 73.6442 76.3318 73.9705 76.0046 74.2968L74.5299 75.7675C74.2027 76.0938 73.8756 76.0938 73.5484 75.7675L64.7051 66.9477Z" fill="#CC93FD"/>
<path fill-rule="evenodd" clip-rule="evenodd" d="M57.8281 27.7516C66.2385 36.1398 66.2385 49.7396 57.8281 58.1278C49.4176 66.5159 35.7817 66.5159 27.3712 58.1278C18.9608 49.7396 18.9608 36.1398 27.3712 27.7516C35.7817 19.3635 49.4176 19.3635 57.8281 27.7516ZM62.0509 42.9397C62.0509 48.297 60.1518 52.8697 56.3536 56.6579C52.5553 60.4461 47.9704 62.3402 42.5989 62.3402C37.2273 62.3402 32.6424 60.4461 28.8442 56.6579C25.0459 52.8697 23.1468 48.297 23.1468 42.9397C23.1468 37.5824 25.0459 33.0096 28.8442 29.2215C32.6424 25.4333 37.2273 23.5392 42.5989 23.5392C47.9704 23.5392 52.5553 25.4333 56.3536 29.2215C60.1518 33.0096 62.051 37.5824 62.0509 42.9397Z" fill="#CC93FD"/>
<rect width="2.44" height="22.2015" rx="1.22" transform="matrix(0.708044 0.706168 -0.708044 0.706168 50.0475 35.0332)" fill="white"/>
<rect width="2.44182" height="22.2015" rx="1.22091" transform="matrix(-0.708044 0.706168 0.708044 0.706168 36.0653 35.0413)" fill="white"/>
</svg>
