<svg xmlns="http://www.w3.org/2000/svg" xml:space="preserve" width="792" height="792"><style>.st0{fill:#8900ff}</style><g class="layer"><path id="svg_1" d="M326 325.2h21.5v150.7H326V325.2zm62.4 0h21.5v150.7h-21.5V325.2zm302.2 41.3c-30.7 0-55.7 24.9-55.7 55.7 0 30.7 24.9 55.7 55.7 55.7 30.7 0 55.7-24.9 55.7-55.7-.1-30.8-25-55.7-55.7-55.7zm0 89.1c-18.4 0-33.4-15-33.4-33.4s15-33.4 33.4-33.4 33.4 15 33.4 33.4-15 33.4-33.4 33.4zm-239.7-87.3h21.5V476h-21.5V368.3zm150.9 17.6c-.9-9.9-9.1-17.6-19.2-17.6h-69.4V476h21.5v-86.2h45.7V476H602l-.2-90.1zm-315.1 49v-47.3c0-10.7-8.7-19.4-19.4-19.4h-70.9v88.3c0 10.7 8.7 19.4 19.4 19.4h70.9v-20.3h-68.8v-20.8h68.8v.1zm-68.8-46.5h47.3V416h-47.3v-27.6zm-72.1 52.9c-6.1 8.6-16.1 14.3-27.4 14.3-18.4 0-33.4-15-33.4-33.4s15-33.4 33.4-33.4c11.3 0 21.3 5.7 27.4 14.3l19.3-11.1c-9.9-15.3-27.1-25.4-46.7-25.4-30.7 0-55.7 24.9-55.7 55.7 0 30.7 24.9 55.7 55.7 55.7 19.6 0 36.8-10.1 46.7-25.4l-19.3-11.3z" class="st0"/><circle id="svg_2" cx="461.6" cy="555.9" r="13.5" class="st0"/><circle id="svg_3" cx="461.6" cy="280.5" r="13.5" class="st0"/></g></svg>